<svg width="2048" height="2048" viewBox="0 0 2048 2048" fill="none" xmlns="http://www.w3.org/2000/svg">
<path d="M943.931 208.57C961.574 219.445 984.321 237.712 1000.17 251.087C1061.22 302.599 1111.09 360.002 1141.22 434.787C1203.71 589.925 1182.88 738.22 1086.42 873.415C1041.53 936.346 986.524 991.069 935.434 1049.08C885.204 1106.12 833.83 1157.96 804.043 1229.44C760.487 1333.95 778.112 1448.03 816.366 1551.1C828.787 1584.57 843.244 1611.18 856.375 1642.88C814.428 1631.47 757.273 1601.12 720.686 1578.51C544.53 1469.67 459.985 1215.68 542.476 1024.33C549.04 1009.1 556.526 990.816 565.328 976.891C567.488 971.58 572.81 962.567 576.111 957.757C572.929 983.468 573.782 1014.52 575.305 1040.35C576.416 1044.72 577.247 1053.39 577.952 1058.26C579.989 1072.33 582.168 1084.23 586.275 1097.91L587.792 1103.8C601.162 1141.95 616.094 1171.78 645.491 1200.16C643.922 1169.84 645.589 1141.88 646.382 1112.58C650.761 950.807 719.254 834.378 806.808 703.566C833.908 663.077 864.065 622.01 888.44 579.022C953.372 464.506 979.387 336.963 943.931 208.57Z" fill="#EC8126"/>
<path d="M565.328 976.892C567.488 971.581 572.81 962.568 576.111 957.758C572.929 983.469 573.782 1014.52 575.305 1040.35L573.697 1041.23C566.295 1031.65 575.905 983.682 565.328 976.892Z" fill="#ED822D"/>
<path d="M587.792 1103.8L587.171 1113.74L586.181 1114.05C583.872 1109.31 581.367 1102.07 583.066 1096.84L586.275 1097.91L587.792 1103.8Z" fill="#ED822D"/>
<path d="M1065.16 1710.36L1063.99 1709.11C1044.01 1687.56 1020.53 1655.23 1002.8 1632.36C931.037 1539.77 892.969 1424.24 943.613 1311.4C962.471 1269.38 986.595 1233.37 1014.72 1196.08C1044.32 1157.24 1075.3 1119.46 1107.59 1082.82C1137.83 1048.16 1169.32 1014.94 1198.15 979.055C1271.4 887.902 1310.11 779.306 1314.32 662.945C1328.49 712.665 1358.71 766.071 1385.43 810.144C1448.87 914.764 1488.6 992.704 1499.73 1115.47C1501.92 1144.78 1501.87 1174.21 1499.58 1203.51C1497 1236.12 1491.44 1268.41 1482.96 1300C1445.47 1439.47 1344.54 1558.55 1220.52 1630.04C1230.69 1609.65 1240.37 1594.09 1249.82 1572.27C1283.14 1496.11 1292.82 1411.7 1277.63 1329.98C1250.24 1350.85 1220.4 1386.31 1200.25 1413.91C1145.16 1489.44 1103.45 1573.87 1076.94 1663.52C1072.24 1679.47 1069.07 1694.27 1065.16 1710.36Z" fill="#EC7F26"/>
<path d="M1499.58 1203.51C1498.39 1200.09 1498.02 1120.79 1499.73 1115.47C1501.92 1144.78 1501.87 1174.21 1499.58 1203.51Z" fill="#ED822D"/>
<path d="M1537.21 357.089C1631.04 355.846 1731.75 355.72 1760.07 466.72C1771.82 512.779 1768.98 547.449 1769.12 594.108C1769.67 647.286 1769.91 700.466 1769.83 753.647C1769.82 795.463 1767.97 837.011 1773.9 878.518C1785.24 957.872 1823 978.361 1897.02 984.598L1896.93 1063.35C1890.43 1063.89 1883.81 1064.29 1877.3 1064.78C1765.65 1073.34 1769.9 1180.98 1769.84 1267.26C1769.97 1325.71 1769.76 1384.16 1769.21 1442.6C1768.92 1510 1776.05 1588.52 1728.33 1642.7C1705.63 1668.47 1675.19 1679.63 1642.19 1685.96C1616.31 1691.22 1565.4 1690.84 1537.23 1690.9L1537.2 1609.64C1599.74 1607.97 1662.93 1617.24 1671.74 1536.09C1674.8 1507.84 1674.06 1482.29 1674.07 1454L1674.11 1314.01C1674.29 1227.94 1664.92 1113.25 1738.4 1051.92C1753.62 1039.22 1770.58 1031.58 1788.58 1023.77C1746.35 1005.39 1716.99 984.514 1697.37 941.462C1672.61 887.098 1674.7 830.542 1674.18 772.594L1674.02 598.355C1674.02 563.757 1675.88 529.184 1669 495.099C1656.06 431.021 1588.48 437.9 1537.98 437.997C1537.24 411.034 1536.98 384.061 1537.21 357.089Z" fill="#FEFEFD"/>
<path d="M479.334 357.468L510.78 357.078L510.842 437.972C480.503 437.909 440.588 436.257 413.06 448.783C366.129 470.137 374.123 550.246 374.07 593.312L373.986 728.283L373.333 793.975C372.658 862.306 371.208 935.538 318.545 987.482C301.086 1004.71 281.593 1013.66 259.728 1023.82C285.641 1034.78 309.659 1048.27 327.769 1070.18C377.845 1130.74 374.001 1222.18 374.017 1295.54L374.028 1448.67C374.05 1479.11 373.283 1507.16 376.655 1537.49C385.347 1615.69 449.342 1609.57 510.78 1609.14L510.801 1690.95C495.474 1690.96 450.882 1691.05 437.681 1689.11C435.787 1689.18 433.891 1689.14 432 1689.01C337.465 1682.03 290.34 1634.81 280.587 1540.49C277.891 1514.42 278.917 1481.09 278.868 1454.35L278.299 1298.2C278.278 1269.9 278.534 1241.57 277.563 1213.2C276.227 1174.18 272.034 1129.04 245.697 1098.08C221.578 1069.72 185.934 1065.59 151.025 1063.47C151.047 1038.42 150.21 1008.73 151.589 984.146C217.213 979.236 258.875 961.434 272.076 890.519C280.956 842.823 278.246 792.925 278.238 744.483L278.815 587.242C278.98 525.075 275.622 449.653 323.211 401.212C364.603 359.078 424.037 358.17 479.334 357.468Z" fill="#FEFEFD"/>
</svg>
